<svg width="276" height="48" viewBox="0 0 276 48" fill="none" xmlns="http://www.w3.org/2000/svg">
<g clip-path="url(#clip0_2002_253)">
<path d="M0 13.0957L3.52008 7.64358C4.10063 7.53384 4.69202 7.48944 5.28281 7.51125C9.5468 7.51125 12.9321 10.3697 12.9321 13.895C12.8775 15.6993 12.1031 17.4102 10.7759 18.659L0 13.0957ZM22.6784 29.0551C22.6784 29.3833 22.6137 29.6533 22.6137 29.9815C22.6406 36.1006 27.5569 39.2236 32.0257 39.2236C33.061 39.2515 34.0907 39.0646 35.0474 38.6751C36.0042 38.2857 36.8665 37.7024 37.578 36.9634C37.7072 37.5532 37.7741 38.1545 37.7775 38.7578C37.7775 42.4632 34.2574 45.4751 27.282 45.4751C18.0748 45.4751 12.1181 39.8906 11.509 29.7856L1.75734 30.3838L2.57133 24.0688H12.7273C12.9968 17.4839 15.5735 9.04102 17.1314 3.85884L28.166 6.1191C26.0098 13.0957 24.1015 17.5527 23.4923 24.2011C27.4868 24.3335 31.2117 24.397 33.9879 24.5346L34.3275 28.3194L22.6784 29.0551Z" fill="#347E5E" style="fill:#347E5E;fill:color(display-p3 0.2039 0.4941 0.3686);fill-opacity:1;"/>
<path d="M60.4666 26.7261C59.8546 27.8584 58.9366 28.8033 57.8135 29.457C56.6905 30.1106 55.4057 30.4478 54.1003 30.4314C52.7381 30.4792 51.4022 30.0552 50.3262 29.2337C49.2501 28.4122 48.5024 27.2454 48.2137 25.9374C47.7926 23.4328 47.6122 20.895 47.6747 18.3573C47.6747 14.7049 47.8795 11.0472 48.079 9.31628L57.6258 9.71857C57.5611 11.1795 57.5611 12.8416 57.5611 14.7049C57.5611 17.9603 57.6258 21.8139 57.9007 26.0062L60.4666 26.7261ZM78.7947 6.44729C80.1587 13.5754 80.9125 20.8031 81.048 28.0547C81.048 29.7168 80.9797 31.2466 80.8432 32.644C80.0993 40.4199 73.5335 44.3423 68.4447 45.0728C68.7143 41.3674 68.7843 37.5615 68.7843 33.708C68.7843 23.7989 68.1051 14.1226 67.496 7.11425L78.7947 6.44729Z" fill="#347E5E" style="fill:#347E5E;fill:color(display-p3 0.2039 0.4941 0.3686);fill-opacity:1;"/>
<path d="M110.168 37.6939C109.735 38.9336 108.925 40.0131 107.847 40.7864C106.769 41.5598 105.476 41.9898 104.141 42.0185C101.365 42.0185 98.6592 40.1553 97.7105 35.7671C96.0933 27.6577 95.4788 15.4248 95.4788 7.58006V6.38377L107.527 5.71681C107.936 15.356 108.066 26.5937 108.411 36.4182L110.168 37.6939ZM138.129 35.5765C137.257 34.4033 136.18 33.3908 134.949 32.5858C134.949 39.8324 130.275 44.0882 122.895 44.0882C115.925 44.0882 112.265 39.8536 112.265 35.4442C112.265 30.5267 116.4 26.1385 123.639 25.6727C123.575 23.6136 123.505 21.3533 123.37 19.1566L117.413 18.8919L118.157 15.0331L122.47 14.9008C122.335 9.07808 122.2 4.19762 122.2 4.19762L132.76 4.00176C133.03 6.59021 133.44 10.3802 133.709 14.5037C136.21 14.5726 138.717 14.6361 141.019 14.7684L141.288 20.0882L134.857 19.7547C134.992 22.6131 135.062 25.408 135.062 27.8641C137.704 29.1292 139.871 30.7278 141.288 32.6546L138.129 35.5765ZM118.901 33.4592C118.901 34.989 119.78 36.4552 121.408 36.4552C123.709 36.4552 123.709 34.2585 123.709 29.4733C120.529 29.7168 118.901 31.3789 118.901 33.438V33.4592ZM142.081 13.4504C137.881 13.4504 134.97 11.1266 134.97 7.33657C134.949 2.99074 138.809 0 142.124 0C146.932 0 149.504 3.58888 149.504 6.31495C149.504 8.17821 148.49 13.4292 142.059 13.4292L142.081 13.4504ZM145.261 6.40494C145.261 3.4142 142.027 3.34539 141.606 3.34539C139.779 3.34539 138.151 5.0075 138.151 7.05073C138.151 9.09396 139.914 10.1103 141.806 10.1103C143.698 10.1103 145.24 8.64402 145.24 6.38377L145.261 6.40494Z" fill="#347E5E" style="fill:#347E5E;fill:color(display-p3 0.2039 0.4941 0.3686);fill-opacity:1;"/>
<path d="M153.978 23.9312L154.657 15.1601C155.735 15.0913 156.754 15.0913 157.773 15.0913C172.263 15.0913 177.88 21.8721 177.88 29.3198C177.88 38.3608 169.621 48 160.004 48C157.908 48 155.741 47.4019 154.727 45.5386C162.576 43.0137 167.724 36.8999 167.724 31.8447C167.724 27.5254 163.95 23.9312 154.927 23.9312H153.978ZM158.29 9.30569L160.274 1.05867C161.558 0.739668 162.879 0.58313 164.204 0.592853C169.012 0.592853 173.276 2.7843 173.276 7.50595C173.236 8.82897 172.96 10.1349 172.462 11.3648L158.29 9.30569Z" fill="#347E5E" style="fill:#347E5E;fill:color(display-p3 0.2039 0.4941 0.3686);fill-opacity:1;"/>
<path d="M201.512 40.1553C200.973 43.5483 198.531 45.2051 195.96 45.2051C194.738 45.1686 193.549 44.8039 192.522 44.1507C191.496 43.4975 190.671 42.5807 190.138 41.4998C188.041 37.6462 186.278 29.3992 185.826 26.1491L195.033 24.09C195.982 28.1447 197.61 33.925 199.636 39.97L201.512 40.1553ZM207.334 30.3838L210.924 24.7993C215.733 25.064 218.234 27.8536 218.234 30.7808C218.215 31.7686 217.945 32.7361 217.449 33.5957C216.953 34.4553 216.246 35.1798 215.393 35.7036L207.334 30.3838Z" fill="#347E5E" style="fill:#347E5E;fill:color(display-p3 0.2039 0.4941 0.3686);fill-opacity:1;"/>
<path d="M224.061 11.9682L226.298 5.65328C226.702 5.59611 227.109 5.57308 227.517 5.58447C231.581 5.58447 234.557 7.91354 234.557 11.3701C234.54 12.6021 234.214 13.8111 233.608 14.8902L224.061 11.9682ZM249.656 21.6074C251.079 25.8421 252.89 29.7168 255.208 32.4429C250.804 33.1098 245.796 34.1738 243.424 35.1689C238.805 37.2281 236.859 38.959 236.859 40.2294C236.859 41.4998 239.096 42.4261 242.751 42.5584C242.88 43.0353 242.949 43.526 242.955 44.0194C242.955 45.7503 241.877 46.9466 239.84 46.9466C234.826 46.9466 226.837 43.1566 226.837 37.9056C226.837 34.449 230.428 30.7278 239.775 28.0653C239.085 26.5506 238.563 24.9676 238.217 23.3436L224.471 25.408L224.401 19.2254C227.177 18.9554 232.39 18.4949 238.077 18.0926C237.612 14.3423 237.364 10.5692 237.333 6.79135C237.293 5.16891 237.383 3.54588 237.603 1.93736L246.405 1.26511C246.695 6.67016 247.511 12.0356 248.842 17.288C251.823 17.0869 254.529 16.8857 256.631 16.8222L257.51 20.4111L249.656 21.6074Z" fill="#347E5E" style="fill:#347E5E;fill:color(display-p3 0.2039 0.4941 0.3686);fill-opacity:1;"/>
<path d="M266.049 30.3838C263.354 20.4111 262.394 9.90384 262.275 2.19144L276 1.86325L271.871 30.0503L266.049 30.3838ZM269.283 46.8672C265.623 46.8672 262.987 44.8769 262.987 41.4839C262.987 37.895 266.033 34.9043 269.418 34.9043C271.72 34.9043 275.919 36.5664 275.919 40.5523C275.935 43.0825 274.512 46.8672 269.299 46.8672H269.283Z" fill="#347E5E" style="fill:#347E5E;fill:color(display-p3 0.2039 0.4941 0.3686);fill-opacity:1;"/>
</g>
<defs>
<clipPath id="clip0_2002_253">
<rect width="276" height="48" fill="white" style="fill:white;fill-opacity:1;"/>
</clipPath>
</defs>
</svg>
