<svg width="960" height="540" viewBox="0 0 960 540" fill="none" xmlns="http://www.w3.org/2000/svg">
<rect width="960" height="540" fill="#CDEBDF" style="fill:#CDEBDF;fill:color(display-p3 0.8039 0.9216 0.8745);fill-opacity:1;"/>
<g clip-path="url(#clip0_2025_382)">
<path d="M286 254.636L290.949 246.954C291.765 246.799 292.596 246.736 293.427 246.767C299.421 246.767 304.18 250.795 304.18 255.762C304.103 258.304 303.014 260.715 301.149 262.474L286 254.636ZM317.881 277.123C317.881 277.585 317.79 277.966 317.79 278.428C317.828 287.05 324.739 291.45 331.022 291.45C332.477 291.49 333.925 291.226 335.27 290.678C336.615 290.129 337.827 289.307 338.827 288.266C339.009 289.097 339.103 289.944 339.108 290.794C339.108 296.015 334.159 300.259 324.353 300.259C311.409 300.259 303.036 292.39 302.179 278.152L288.47 278.995L289.615 270.097H303.892C304.271 260.819 307.893 248.923 310.083 241.621L325.596 244.805C322.564 254.636 319.882 260.916 319.025 270.283C324.641 270.47 329.877 270.559 333.78 270.753L334.258 276.086L317.881 277.123Z" fill="white" style="fill:white;fill-opacity:1;"/>
<path d="M371.004 273.841C370.143 275.437 368.853 276.768 367.274 277.689C365.695 278.61 363.889 279.085 362.054 279.062C360.139 279.129 358.261 278.532 356.748 277.374C355.236 276.217 354.184 274.573 353.779 272.73C353.187 269.201 352.933 265.625 353.021 262.049C353.021 256.903 353.309 251.749 353.589 249.31L367.01 249.877C366.919 251.936 366.919 254.278 366.919 256.903C366.919 261.49 367.01 266.92 367.397 272.827L371.004 273.841ZM396.769 245.268C398.687 255.312 399.746 265.496 399.937 275.713C399.937 278.055 399.841 280.211 399.649 282.18C398.603 293.136 389.373 298.663 382.219 299.692C382.598 294.471 382.697 289.109 382.697 283.679C382.697 269.717 381.742 256.083 380.886 246.208L396.769 245.268Z" fill="white" style="fill:white;fill-opacity:1;"/>
<path d="M440.875 289.295C440.265 291.042 439.127 292.563 437.612 293.652C436.096 294.742 434.278 295.348 432.402 295.388C428.499 295.388 424.695 292.763 423.361 286.58C421.088 275.154 420.224 257.917 420.224 246.864V245.178L437.161 244.239C437.737 257.82 437.919 273.655 438.404 287.497L440.875 289.295ZM480.182 286.312C478.956 284.658 477.442 283.232 475.711 282.098C475.711 292.308 469.141 298.305 458.766 298.305C448.968 298.305 443.822 292.338 443.822 286.125C443.822 279.196 449.635 273.013 459.812 272.357C459.721 269.456 459.623 266.271 459.433 263.176L451.06 262.803L452.105 257.365L458.168 257.179C457.978 248.975 457.789 242.098 457.789 242.098L472.634 241.822C473.013 245.469 473.589 250.809 473.968 256.62C477.484 256.717 481.008 256.806 484.244 256.992L484.623 264.488L475.582 264.018C475.772 268.046 475.87 271.984 475.87 275.445C479.584 277.227 482.63 279.48 484.623 282.195L480.182 286.312ZM453.151 283.328C453.151 285.484 454.386 287.55 456.675 287.55C459.911 287.55 459.911 284.454 459.911 277.712C455.44 278.055 453.151 280.397 453.151 283.298V283.328ZM485.737 255.135C479.834 255.135 475.741 251.861 475.741 246.521C475.711 240.397 481.137 236.183 485.798 236.183C492.557 236.183 496.172 241.24 496.172 245.081C496.172 247.707 494.747 255.106 485.707 255.106L485.737 255.135ZM490.208 245.208C490.208 240.994 485.661 240.897 485.07 240.897C482.501 240.897 480.213 243.239 480.213 246.118C480.213 248.997 482.691 250.429 485.351 250.429C488.01 250.429 490.178 248.363 490.178 245.178L490.208 245.208Z" fill="white" style="fill:white;fill-opacity:1;"/>
<path d="M502.461 269.903L503.416 257.544C504.932 257.447 506.364 257.447 507.796 257.447C528.166 257.447 536.063 267.002 536.063 277.496C536.063 290.235 524.453 303.816 510.934 303.816C507.986 303.816 504.939 302.974 503.515 300.348C514.549 296.791 521.786 288.176 521.786 281.053C521.786 274.967 516.481 269.903 503.795 269.903H502.461ZM508.524 249.295L511.313 237.675C513.118 237.226 514.975 237.005 516.837 237.019C523.597 237.019 529.591 240.107 529.591 246.759C529.534 248.624 529.147 250.464 528.447 252.197L508.524 249.295Z" fill="white" style="fill:white;fill-opacity:1;"/>
<path d="M569.286 292.763C568.528 297.544 565.095 299.878 561.48 299.878C559.762 299.827 558.09 299.313 556.647 298.393C555.205 297.472 554.045 296.181 553.296 294.658C550.348 289.228 547.87 277.608 547.233 273.028L560.177 270.127C561.511 275.84 563.799 283.985 566.649 292.502L569.286 292.763ZM577.47 278.995L582.517 271.126C589.277 271.499 592.793 275.43 592.793 279.554C592.766 280.946 592.387 282.309 591.689 283.521C590.992 284.732 589.999 285.753 588.799 286.491L577.47 278.995Z" fill="white" style="fill:white;fill-opacity:1;"/>
<path d="M600.985 253.047L604.13 244.149C604.697 244.068 605.27 244.036 605.842 244.052C611.556 244.052 615.739 247.334 615.739 252.204C615.715 253.94 615.257 255.644 614.406 257.164L600.985 253.047ZM636.966 266.629C638.966 272.595 641.513 278.055 644.771 281.896C638.58 282.836 631.54 284.335 628.206 285.737C621.711 288.639 618.975 291.077 618.975 292.867C618.975 294.658 622.12 295.963 627.258 296.149C627.44 296.821 627.537 297.513 627.546 298.208C627.546 300.647 626.031 302.332 623.166 302.332C616.118 302.332 604.888 296.992 604.888 289.593C604.888 284.723 609.935 279.48 623.075 275.728C622.106 273.594 621.371 271.363 620.885 269.075L601.561 271.984L601.462 263.272C605.365 262.892 612.693 262.243 620.688 261.676C620.034 256.392 619.685 251.076 619.642 245.753C619.586 243.467 619.712 241.18 620.021 238.913L632.396 237.966C632.804 245.582 633.951 253.142 635.822 260.543C640.012 260.259 643.816 259.976 646.772 259.886L648.007 264.943L636.966 266.629Z" fill="white" style="fill:white;fill-opacity:1;"/>
<path d="M660.011 278.995C656.222 264.943 654.873 250.138 654.706 239.271L674 238.809L668.195 278.525L660.011 278.995ZM664.558 302.22C659.412 302.22 655.706 299.416 655.706 294.635C655.706 289.578 659.988 285.364 664.747 285.364C667.983 285.364 673.886 287.706 673.886 293.323C673.909 296.888 671.908 302.22 664.58 302.22H664.558Z" fill="white" style="fill:white;fill-opacity:1;"/>
</g>
<defs>
<clipPath id="clip0_2025_382">
<rect width="388" height="67.633" fill="white" style="fill:white;fill-opacity:1;" transform="translate(286 236.183)"/>
</clipPath>
</defs>
</svg>
